<svg xmlns="http://www.w3.org/2000/svg" viewBox="0 0 51.79 58.17"><defs><style>.cls-1{fill:#76bc1d;}.cls-2{fill:#0a3d52;}</style></defs><title>Element 8</title><g id="Ebene_2" data-name="Ebene 2"><g id="Layer_1" data-name="Layer 1"><path class="cls-1" d="M47.79,58.17h-26a4,4,0,0,1-4-4v-20a4,4,0,0,1,4-4h26a4,4,0,0,1,4,4v20A4,4,0,0,1,47.79,58.17Zm-26-26a2,2,0,0,0-2,2v20a2,2,0,0,0,2,2h26a2,2,0,0,0,2-2v-20a2,2,0,0,0-2-2Z"/><path class="cls-1" d="M40.79,31.17h-2v-7a4,4,0,0,0-8,0v7h-2v-7a6,6,0,0,1,12,0Z"/><path class="cls-1" d="M46.79,31.17h-2v-7a10,10,0,0,0-20,0v7h-2v-7a12,12,0,0,1,24,0Z"/><rect class="cls-1" x="21.79" y="52.17" width="26" height="2"/><path class="cls-1" d="M34.79,44.17a4,4,0,1,1,4-4A4,4,0,0,1,34.79,44.17Zm0-6a2,2,0,1,0,2,2A2,2,0,0,0,34.79,38.17Z"/><rect class="cls-1" x="33.79" y="43.17" width="2" height="5"/><rect class="cls-2" x="1" y="4" width="32" height="2"/><rect class="cls-2" x="6" y="10" width="21.51" height="2"/><rect class="cls-2" x="6" y="14" width="16.41" height="2"/><rect class="cls-2" x="5.98" y="18" width="14.02" height="2"/><rect class="cls-2" x="5.98" y="30" width="10.02" height="2"/><polygon class="cls-2" points="16.01 48 2 48 2 2 32 2 32 10.03 34 10.03 34 0 0 0 0 50 16.01 50 16.01 48"/><rect class="cls-2" x="5.98" y="22" width="14.02" height="2"/><rect class="cls-2" x="5.98" y="26" width="14.02" height="2"/><rect class="cls-2" x="5.98" y="34" width="10.02" height="2"/><rect class="cls-2" x="5.98" y="38" width="10.02" height="2"/><rect class="cls-2" x="5.98" y="42" width="10.02" height="2"/></g></g></svg>